<?xml version="1.0" encoding="utf-8"?>
<!-- Svg Vector Icons : http://www.onlinewebfonts.com/icon -->
<!DOCTYPE svg PUBLIC "-//W3C//DTD SVG 1.1//EN" "http://www.w3.org/Graphics/SVG/1.1/DTD/svg11.dtd">
<svg version="1.1" xmlns="http://www.w3.org/2000/svg" xmlns:xlink="http://www.w3.org/1999/xlink" x="0px" y="0px" viewBox="0 0 1000 1000" enable-background="new 0 0 1000 1000" style="fill:white;stroke:white;" xml:space="preserve">
<metadata> Svg Vector Icons : http://www.onlinewebfonts.com/icon </metadata>
<g><path d="M547.6,500L979.8,67.8c13.6-13.6,13.6-34,0-47.6s-34-13.6-47.6,0L500,452.4L67.8,20.2c-13.6-13.6-34-13.6-47.6,0c-13.6,13.6-13.6,34,0,47.6L452.4,500L20.2,932.2c-13.6,13.6-13.6,34,0,47.6c13.6,13.6,34,13.6,47.6,0L500,547.6l432.2,432.2c13.6,13.6,34,13.6,47.6,0s13.6-34,0-47.6L547.6,500z"/></g>
</svg>
